<?xml version="1.0" encoding="iso-8859-1"?>
<!-- Generator: Adobe Illustrator 19.0.0, SVG Export Plug-In . SVG Version: 6.00 Build 0)  -->
<svg version="1.1" id="Layer_1" xmlns="http://www.w3.org/2000/svg" xmlns:xlink="http://www.w3.org/1999/xlink" x="0px" y="0px"
	 viewBox="0 0 512 512" style="enable-background:new 0 0 512 512;" xml:space="preserve">
<g>
	<g>
		<path d="M504.499,109.909L402.099,7.501C397.303,2.697,390.793,0,384,0H25.6C11.46,0,0,11.46,0,25.6v460.8
			C0,500.54,11.46,512,25.6,512h460.8c14.14,0,25.6-11.46,25.6-25.6V128.009C512,121.225,509.303,114.714,504.499,109.909z
			 M396.8,38.4l76.791,76.8H396.8V38.4z M128,194.884l98.56-98.569l152.004,152.013H348.16V409.6h-72.951V288
			c0-11.998-9.771-21.751-21.769-21.751h-53.751c-11.998,0-21.777,9.754-21.777,21.751v121.6H128V194.884z M249.591,291.84V409.6
			h-46.046V291.84H249.591z M102.4,486.4H25.6V25.6h76.8V486.4z M486.4,486.4H128v-51.2h224.009c11.972,0,21.751-9.762,21.751-21.76
			V273.929h14.071c8.849,0,16.751-5.274,20.096-13.423c3.379-8.175,1.527-17.485-4.702-23.723L241.963,75.503
			c-8.252-8.226-22.554-8.226-30.797,0L128,158.66V25.6h243.2v89.6c0,14.14,11.46,25.6,25.6,25.6h89.6V486.4z"/>
	</g>
</g>
<g>
</g>
<g>
</g>
<g>
</g>
<g>
</g>
<g>
</g>
<g>
</g>
<g>
</g>
<g>
</g>
<g>
</g>
<g>
</g>
<g>
</g>
<g>
</g>
<g>
</g>
<g>
</g>
<g>
</g>
</svg>
