<?xml version="1.0" encoding="iso-8859-1"?>
<!-- Generator: Adobe Illustrator 19.0.0, SVG Export Plug-In . SVG Version: 6.00 Build 0)  -->
<svg version="1.1" id="Layer_1" xmlns="http://www.w3.org/2000/svg" xmlns:xlink="http://www.w3.org/1999/xlink" x="0px" y="0px"
	 viewBox="0 0 512 512" style="enable-background:new 0 0 512 512;" xml:space="preserve">
<g>
	<g>
		<path d="M486.4,204.8H268.049v-51.2c0-14.14-11.46-25.6-25.6-25.6h-55.714V76.8c0-14.14-11.46-25.6-25.6-25.6H25.6
			C11.46,51.2,0,62.66,0,76.8v358.4c0,14.14,11.46,25.6,25.6,25.6h460.8c14.14,0,25.6-11.46,25.6-25.6V230.4
			C512,216.26,500.54,204.8,486.4,204.8z M325.274,230.4v51.2H188.237v-51.2H325.274z M406.588,307.2v51.2H269.551v-51.2H406.588z
			 M243.951,307.2v51.2H106.914v-51.2H243.951z M242.449,153.6v51.2H106.914v-51.2H242.449z M25.6,76.8h135.526V128H25.6V76.8z
			 M25.6,153.6h55.714v51.2H25.6V153.6z M25.6,230.4h137.037v51.2H25.6V230.4z M25.6,307.2h55.714v51.2H25.6V307.2z M162.637,435.2
			H25.6V384h137.037V435.2z M325.274,435.2H188.237V384h137.037V435.2z M486.4,435.2H350.874V384H486.4V435.2z M486.4,358.4h-54.212
			v-51.2H486.4V358.4z M486.4,281.6H350.874v-51.2H486.4V281.6z"/>
	</g>
</g>
<g>
</g>
<g>
</g>
<g>
</g>
<g>
</g>
<g>
</g>
<g>
</g>
<g>
</g>
<g>
</g>
<g>
</g>
<g>
</g>
<g>
</g>
<g>
</g>
<g>
</g>
<g>
</g>
<g>
</g>
</svg>
