<?xml version="1.0" encoding="iso-8859-1"?>
<!-- Generator: Adobe Illustrator 19.0.0, SVG Export Plug-In . SVG Version: 6.00 Build 0)  -->
<svg version="1.1" id="Layer_1" xmlns="http://www.w3.org/2000/svg" xmlns:xlink="http://www.w3.org/1999/xlink" x="0px" y="0px"
	 viewBox="0 0 512 512" style="enable-background:new 0 0 512 512;" xml:space="preserve">
<g>
	<g>
		<path d="M499.2,486.4h-12.8V179.2H256v307.2h-25.6V0H25.6v486.4H12.8c-7.074,0-12.8,5.726-12.8,12.8c0,7.074,5.726,12.8,12.8,12.8
			h486.4c7.074,0,12.8-5.726,12.8-12.8C512,492.126,506.274,486.4,499.2,486.4z M76.8,486.4H51.2V25.6h25.6V486.4z M153.6,486.4
			h-51.2v-76.8h51.2V486.4z M153.6,384h-51.2V25.6h51.2V384z M204.8,486.4h-25.6V25.6h25.6V486.4z M358.4,486.4h-76.8v-76.8h76.8
			V486.4z M358.4,384h-76.8v-76.8h76.8V384z M358.4,281.6h-76.8v-76.8h76.8V281.6z M460.8,486.4H384v-76.8h76.8V486.4z M460.8,384
			H384v-76.8h76.8V384z M460.8,281.6H384v-76.8h76.8V281.6z"/>
	</g>
</g>
<g>
</g>
<g>
</g>
<g>
</g>
<g>
</g>
<g>
</g>
<g>
</g>
<g>
</g>
<g>
</g>
<g>
</g>
<g>
</g>
<g>
</g>
<g>
</g>
<g>
</g>
<g>
</g>
<g>
</g>
</svg>
