<?xml version="1.0" encoding="iso-8859-1"?>
<!-- Generator: Adobe Illustrator 19.0.0, SVG Export Plug-In . SVG Version: 6.00 Build 0)  -->
<svg version="1.1" id="Layer_1" xmlns="http://www.w3.org/2000/svg" xmlns:xlink="http://www.w3.org/1999/xlink" x="0px" y="0px"
	 viewBox="0 0 512.004 512.004" style="enable-background:new 0 0 512.004 512.004;" xml:space="preserve">
<g>
	<g>
		<path d="M499.2,486.404H332.8v-25.6h140.8c7.074,0,12.8-5.726,12.8-12.8c0-7.074-5.726-12.8-12.8-12.8H332.8v-25.6h140.8
			c7.074,0,12.8-5.726,12.8-12.8c0-7.074-5.726-12.8-12.8-12.8H332.8v-25.6h140.8c7.074,0,12.8-5.726,12.8-12.8
			c0-7.074-5.726-12.8-12.8-12.8H332.8v-25.6h140.8c7.074,0,12.8-5.726,12.8-12.8c0-7.074-5.726-12.8-12.8-12.8H38.4
			c-7.074,0-12.8,5.726-12.8,12.8c0,7.074,5.726,12.8,12.8,12.8h140.8v25.6H38.4c-7.074,0-12.8,5.726-12.8,12.8
			c0,7.074,5.726,12.8,12.8,12.8h140.8v25.6H38.4c-7.074,0-12.8,5.726-12.8,12.8c0,7.074,5.726,12.8,12.8,12.8h140.8v25.6H38.4
			c-7.074,0-12.8,5.726-12.8,12.8c0,7.074,5.726,12.8,12.8,12.8h140.8v25.6H12.8c-7.074,0-12.8,5.726-12.8,12.8
			c0,7.074,5.726,12.8,12.8,12.8h486.4c7.074,0,12.8-5.726,12.8-12.8C512,492.13,506.274,486.404,499.2,486.404z M307.2,486.404
			H204.8v-179.2h102.4V486.404z"/>
	</g>
</g>
<g>
	<g>
		<path d="M435.2,230.404H76.8c-7.074,0-12.8,5.726-12.8,12.8s5.726,12.8,12.8,12.8h358.4c7.074,0,12.8-5.726,12.8-12.8
			S442.274,230.404,435.2,230.404z"/>
	</g>
</g>
<g>
	<g>
		<path d="M384,179.204H128c-7.074,0-12.8,5.726-12.8,12.8s5.726,12.8,12.8,12.8h256c7.074,0,12.8-5.726,12.8-12.8
			S391.074,179.204,384,179.204z"/>
	</g>
</g>
<g>
	<g>
		<path d="M332.8,128.004H179.2c-7.074,0-12.8,5.726-12.8,12.8c0,7.074,5.726,12.8,12.8,12.8h153.6c7.074,0,12.8-5.726,12.8-12.8
			C345.6,133.73,339.874,128.004,332.8,128.004z"/>
	</g>
</g>
<g>
	<g>
		<path d="M281.6,76.804h-51.2c-7.074,0-12.8,5.726-12.8,12.8c0,7.074,5.726,12.8,12.8,12.8h51.2c7.074,0,12.8-5.726,12.8-12.8
			C294.4,82.53,288.674,76.804,281.6,76.804z"/>
	</g>
</g>
<g>
	<g>
		<path d="M508.254,246.95l-243.2-243.2c-5.001-5.001-13.099-5.001-18.099,0l-243.2,243.2c-5.001,5-5.001,13.099,0,18.099
			c5,5.001,13.099,5.001,18.099,0.009L256,30.903L490.146,265.05c2.5,2.5,5.777,3.746,9.054,3.746c3.277,0,6.554-1.246,9.054-3.746
			C513.254,260.049,513.254,251.951,508.254,246.95z"/>
	</g>
</g>
<g>
</g>
<g>
</g>
<g>
</g>
<g>
</g>
<g>
</g>
<g>
</g>
<g>
</g>
<g>
</g>
<g>
</g>
<g>
</g>
<g>
</g>
<g>
</g>
<g>
</g>
<g>
</g>
<g>
</g>
</svg>
