<?xml version="1.0" encoding="iso-8859-1"?>
<!-- Generator: Adobe Illustrator 19.0.0, SVG Export Plug-In . SVG Version: 6.00 Build 0)  -->
<svg version="1.1" id="Layer_1" xmlns="http://www.w3.org/2000/svg" xmlns:xlink="http://www.w3.org/1999/xlink" x="0px" y="0px"
	 viewBox="0 0 512 512" style="enable-background:new 0 0 512 512;" xml:space="preserve">
<g>
	<g>
		<path d="M499.2,486.4h-12.8V307.2h-26.897c-5.948-29.175-31.804-51.2-62.703-51.2c-30.899,0-56.755,22.025-62.703,51.2H307.2
			v179.2h-25.6V128H128v102.4h25.6v-76.8H256v332.8h-25.6V256H76.8v102.4h25.6v-76.8h102.4v204.8h-25.6V384H25.6v102.4H12.8
			c-7.074,0-12.8,5.726-12.8,12.8c0,7.074,5.726,12.8,12.8,12.8h486.4c7.074,0,12.8-5.726,12.8-12.8
			C512,492.126,506.274,486.4,499.2,486.4z M153.6,486.4H51.2v-25.6h102.4V486.4z M153.6,435.2H51.2v-25.6h102.4V435.2z
			 M396.8,281.6c16.666,0,30.737,10.735,36.045,25.6h-72.081C366.063,292.335,380.134,281.6,396.8,281.6z M460.8,486.4h-25.6v-128
			h-25.6v128H384v-128h-25.6v128h-25.6V332.8h128V486.4z"/>
	</g>
</g>
<g>
	<g>
		<polygon points="281.6,51.2 281.6,0 256,0 256,51.2 204.8,51.2 204.8,102.4 230.4,102.4 230.4,76.8 307.2,76.8 307.2,153.6 
			332.8,153.6 332.8,51.2 		"/>
	</g>
</g>
<g>
	<g>
		<path d="M307.2,179.2v102.4h9.02c4.25-8.883,9.83-16.879,16.58-23.808V204.8h76.8v26.726c9.028,1.314,17.579,4.079,25.6,7.919
			V179.2H307.2z"/>
	</g>
</g>
<g>
	<g>
		<rect x="128" y="307.2" width="51.2" height="25.6"/>
	</g>
</g>
<g>
</g>
<g>
</g>
<g>
</g>
<g>
</g>
<g>
</g>
<g>
</g>
<g>
</g>
<g>
</g>
<g>
</g>
<g>
</g>
<g>
</g>
<g>
</g>
<g>
</g>
<g>
</g>
<g>
</g>
</svg>
