<?xml version="1.0" encoding="iso-8859-1"?>
<!-- Generator: Adobe Illustrator 19.0.0, SVG Export Plug-In . SVG Version: 6.00 Build 0)  -->
<svg version="1.1" id="Layer_1" xmlns="http://www.w3.org/2000/svg" xmlns:xlink="http://www.w3.org/1999/xlink" x="0px" y="0px"
	 viewBox="0 0 512 512" style="enable-background:new 0 0 512 512;" xml:space="preserve">
<g>
	<g>
		<path d="M486.4,51.2H25.6C11.46,51.2,0,62.66,0,76.8v281.6C0,372.54,11.46,384,25.6,384h179.2v51.2H102.4
			c-7.074,0-12.8,5.726-12.8,12.8c0,7.074,5.726,12.8,12.8,12.8h307.2c7.074,0,12.8-5.726,12.8-12.8c0-7.074-5.726-12.8-12.8-12.8
			H307.2V384h179.2c14.14,0,25.6-11.46,25.6-25.6V76.8C512,62.66,500.54,51.2,486.4,51.2z M281.6,435.2h-51.2V384h51.2V435.2z
			 M486.4,358.4H25.6V76.8h460.8V358.4z"/>
	</g>
</g>
<g>
	<g>
		<path d="M362.266,185.361l-89.6-76.8c-4.796-4.105-10.735-6.161-16.666-6.161s-11.87,2.057-16.657,6.161l-89.6,76.8
			c-8.132,6.972-11.068,18.27-7.347,28.322c3.712,10.044,13.295,16.717,24.004,16.717v76.8c0,14.14,11.46,25.6,25.6,25.6h128
			c14.14,0,25.6-11.46,25.6-25.6v-76.8c10.709,0,20.292-6.673,24.013-16.717C373.333,203.639,370.398,192.333,362.266,185.361z
			 M320,204.8v102.4H192V204.8h-25.6L256,128l89.6,76.8H320z"/>
	</g>
</g>
<g>
	<g>
		<path d="M281.6,204.8h-51.2c-7.074,0-12.8,5.726-12.8,12.8v51.2c0,7.074,5.726,12.8,12.8,12.8h51.2c7.074,0,12.8-5.726,12.8-12.8
			v-51.2C294.4,210.526,288.674,204.8,281.6,204.8z M268.8,256h-25.6v-25.6h25.6V256z"/>
	</g>
</g>
<g>
</g>
<g>
</g>
<g>
</g>
<g>
</g>
<g>
</g>
<g>
</g>
<g>
</g>
<g>
</g>
<g>
</g>
<g>
</g>
<g>
</g>
<g>
</g>
<g>
</g>
<g>
</g>
<g>
</g>
</svg>
