<?xml version="1.0" encoding="iso-8859-1"?>
<!-- Generator: Adobe Illustrator 19.0.0, SVG Export Plug-In . SVG Version: 6.00 Build 0)  -->
<svg version="1.1" id="Layer_1" xmlns="http://www.w3.org/2000/svg" xmlns:xlink="http://www.w3.org/1999/xlink" x="0px" y="0px"
	 viewBox="0 0 512.005 512.005" style="enable-background:new 0 0 512.005 512.005;" xml:space="preserve">
<g>
	<g>
		<path d="M256,384.003v76.8h76.8v-76.8H256z M307.2,435.203h-25.6v-25.6h25.6V435.203z"/>
	</g>
</g>
<g>
	<g>
		<path d="M358.4,384.003v76.8h76.8v-76.8H358.4z M409.6,435.203H384v-25.6h25.6V435.203z"/>
	</g>
</g>
<g>
	<g>
		<path d="M499.2,486.403h-12.8v-204.8h-25.6v-25.6h-25.6v25.6h-25.6v51.2H384v-51.2v-51.2h-25.6v51.2h-25.6v-76.8h-25.6v76.8v51.2
			h-25.6v-51.2H256v-51.2h-25.6v51.2h-25.6v204.8h-51.2v-281.6h25.6c14.14,0,25.6-11.46,25.6-25.6v-25.6h230.4v76.8h25.6v-76.8h25.6
			c11.87,0,22.187-8.166,24.917-19.721c2.731-11.554-2.85-23.467-13.466-28.774l-51.2-25.6c-3.558-1.775-7.475-2.705-11.452-2.705
			H156.399l-31.104-62.652c-4.403-8.806-13.363-14.148-22.886-14.148c-1.954,0-3.925,0.222-5.888,0.691
			C84.966,3.416,76.8,13.733,76.8,25.603v51.2H25.6c-14.14,0-25.6,11.46-25.6,25.6v25.6c0,14.14,11.46,25.6,25.6,25.6h51.2v25.6
			v307.2h-64c-7.074,0-12.8,5.726-12.8,12.8c0,7.074,5.726,12.8,12.8,12.8h486.4c7.074,0,12.8-5.726,12.8-12.8
			C512,492.129,506.274,486.403,499.2,486.403z M76.8,128.003H25.6v-25.6h51.2V128.003z M435.2,102.403l51.2,25.6H204.8
			c0-6.793-2.697-13.303-7.501-18.099l-7.492-7.501H435.2z M102.4,25.603l25.6,51.2h-25.6V25.603z M102.4,102.403h51.2l25.6,25.6
			v51.2h-76.8V102.403z M128,486.403h-25.6v-281.6H128V486.403z M460.8,486.403H230.4v-179.2H256v51.2h76.8v-51.2h25.6v51.2h76.8
			v-51.2h25.6V486.403z"/>
	</g>
</g>
<g>
</g>
<g>
</g>
<g>
</g>
<g>
</g>
<g>
</g>
<g>
</g>
<g>
</g>
<g>
</g>
<g>
</g>
<g>
</g>
<g>
</g>
<g>
</g>
<g>
</g>
<g>
</g>
<g>
</g>
</svg>
