<?xml version="1.0" encoding="iso-8859-1"?>
<!-- Generator: Adobe Illustrator 19.0.0, SVG Export Plug-In . SVG Version: 6.00 Build 0)  -->
<svg version="1.1" id="Layer_1" xmlns="http://www.w3.org/2000/svg" xmlns:xlink="http://www.w3.org/1999/xlink" x="0px" y="0px"
	 viewBox="0 0 511.996 511.996" style="enable-background:new 0 0 511.996 511.996;" xml:space="preserve">
<g>
	<g>
		<path d="M362.263,108.559l-89.6-76.8c-4.796-4.104-10.735-6.161-16.666-6.161s-11.87,2.057-16.666,6.161l-89.6,76.8
			c-8.132,6.972-11.059,18.27-7.347,28.322c3.721,10.044,13.303,16.717,24.013,16.717v76.8c0,14.14,11.46,25.6,25.6,25.6h128
			c14.14,0,25.6-11.46,25.6-25.6v-76.8c10.709,0,20.292-6.673,24.013-16.717C373.322,126.838,370.395,115.531,362.263,108.559z
			 M319.997,127.998v102.4h-128v-102.4h-25.6l89.6-76.8l89.6,76.8H319.997z"/>
	</g>
</g>
<g>
	<g>
		<path d="M281.597,127.998h-51.2c-7.074,0-12.8,5.726-12.8,12.8v51.2c0,7.074,5.726,12.8,12.8,12.8h51.2
			c7.074,0,12.8-5.726,12.8-12.8v-51.2C294.397,133.724,288.672,127.998,281.597,127.998z M268.797,179.198h-25.6v-25.6h25.6
			V179.198z"/>
	</g>
</g>
<g>
	<g>
		<path d="M221.463,338.959l-89.6-76.8c-4.796-4.105-10.735-6.161-16.666-6.161s-11.87,2.057-16.657,6.161l-89.6,76.8
			c-8.132,6.972-11.068,18.27-7.347,28.322c3.712,10.044,13.295,16.717,24.004,16.717v76.8c0,14.14,11.46,25.6,25.6,25.6h128
			c14.14,0,25.6-11.46,25.6-25.6v-76.8c10.709,0,20.292-6.673,24.013-16.717C232.522,357.238,229.595,345.931,221.463,338.959z
			 M179.197,358.398v102.4h-128v-102.4h-25.6l89.6-76.8l89.6,76.8H179.197z"/>
	</g>
</g>
<g>
	<g>
		<path d="M140.797,358.398h-51.2c-7.074,0-12.8,5.726-12.8,12.8v51.2c0,7.074,5.726,12.8,12.8,12.8h51.2
			c7.074,0,12.8-5.726,12.8-12.8v-51.2C153.597,364.124,147.872,358.398,140.797,358.398z M127.997,409.598h-25.6v-25.6h25.6
			V409.598z"/>
	</g>
</g>
<g>
	<g>
		<path d="M503.055,338.959l-89.6-76.8c-4.787-4.105-10.726-6.161-16.657-6.161s-11.87,2.057-16.666,6.161l-89.6,76.8
			c-8.132,6.972-11.068,18.27-7.347,28.322c3.721,10.044,13.303,16.717,24.013,16.717v76.8c0,14.14,11.46,25.6,25.6,25.6h128
			c14.14,0,25.6-11.46,25.6-25.6v-76.8c10.709,0,20.292-6.673,24.004-16.717C514.122,357.229,511.195,345.931,503.055,338.959z
			 M460.797,358.398v102.4h-128v-102.4h-25.6l89.6-76.8l89.6,76.8H460.797z"/>
	</g>
</g>
<g>
	<g>
		<path d="M422.397,358.398h-51.2c-7.074,0-12.8,5.726-12.8,12.8v51.2c0,7.074,5.726,12.8,12.8,12.8h51.2
			c7.074,0,12.8-5.726,12.8-12.8v-51.2C435.197,364.124,429.472,358.398,422.397,358.398z M409.597,409.598h-25.6v-25.6h25.6
			V409.598z"/>
	</g>
</g>
<g>
</g>
<g>
</g>
<g>
</g>
<g>
</g>
<g>
</g>
<g>
</g>
<g>
</g>
<g>
</g>
<g>
</g>
<g>
</g>
<g>
</g>
<g>
</g>
<g>
</g>
<g>
</g>
<g>
</g>
</svg>
