<?xml version="1.0" encoding="iso-8859-1"?>
<!-- Generator: Adobe Illustrator 19.0.0, SVG Export Plug-In . SVG Version: 6.00 Build 0)  -->
<svg version="1.1" id="Layer_1" xmlns="http://www.w3.org/2000/svg" xmlns:xlink="http://www.w3.org/1999/xlink" x="0px" y="0px"
	 viewBox="0 0 512.001 512.001" style="enable-background:new 0 0 512.001 512.001;" xml:space="preserve">
<g>
	<g>
		<path d="M499.2,486.401h-12.8v-128c8.226,0,15.957-3.959,20.77-10.633c4.813-6.673,6.118-15.258,3.516-23.066l-25.6-76.8
			c-3.482-10.453-13.269-17.502-24.286-17.502h-256c-11.017,0-20.804,7.049-24.286,17.502l-25.6,76.8
			c-2.603,7.808-1.289,16.384,3.516,23.066c4.813,6.673,12.544,10.633,20.77,10.633v128H128V25.6h51.2v186.641
			c7.663-4.48,16.273-7.441,25.6-7.441V25.6H256v179.2h25.6V25.6C281.6,11.461,270.14,0,256,0H51.2c-14.14,0-25.6,11.46-25.6,25.6
			v460.8H12.8c-7.074,0-12.8,5.726-12.8,12.8c0,7.074,5.726,12.8,12.8,12.8h486.4c7.074,0,12.8-5.726,12.8-12.8
			C512,492.126,506.274,486.401,499.2,486.401z M102.4,486.401H51.2V25.6h51.2V486.401z M396.8,256h25.6v76.8h-25.6V256z M345.6,256
			h25.6v76.8h-25.6V256z M294.4,256H320v76.8h-25.6V256z M243.2,256h25.6v76.8h-25.6V256z M204.8,256h12.8v76.8h-12.8h-25.6
			L204.8,256z M409.6,486.401H384v-76.8h25.6V486.401z M460.8,486.401h-25.6V384h-76.8v102.4H204.8v-128h256V486.401z M448,332.8
			V256h12.8l25.6,76.8h-25.6H448z"/>
	</g>
</g>
<g>
	<g>
		<path d="M230.4,384v76.8h102.4V384H230.4z M307.2,435.201H256v-25.6h51.2V435.201z"/>
	</g>
</g>
<g>
</g>
<g>
</g>
<g>
</g>
<g>
</g>
<g>
</g>
<g>
</g>
<g>
</g>
<g>
</g>
<g>
</g>
<g>
</g>
<g>
</g>
<g>
</g>
<g>
</g>
<g>
</g>
<g>
</g>
</svg>
