<?xml version="1.0" encoding="iso-8859-1"?>
<!-- Generator: Adobe Illustrator 19.0.0, SVG Export Plug-In . SVG Version: 6.00 Build 0)  -->
<svg version="1.1" id="Layer_1" xmlns="http://www.w3.org/2000/svg" xmlns:xlink="http://www.w3.org/1999/xlink" x="0px" y="0px"
	 viewBox="0 0 512.003 512.003" style="enable-background:new 0 0 512.003 512.003;" xml:space="preserve">
<g>
	<g>
		<path d="M352.538,230.982l-89.6-25.225c-2.27-0.64-4.608-0.956-6.938-0.956c-2.338,0-4.668,0.316-6.938,0.956l-89.6,25.225
			c-11.042,3.106-18.662,13.175-18.662,24.644v51.2c0,95.019,103.748,125.756,108.169,127.01c2.295,0.657,4.668,0.99,7.031,0.99
			s4.736-0.324,7.031-0.99c4.42-1.263,108.169-32,108.169-127.01v-51.2C371.2,244.157,363.571,234.088,352.538,230.982z
			 M166.4,306.826c0-25.6,0-51.2,0-51.2l89.6-25.224l44.305,12.476l-133.026,76.015C166.775,315.001,166.4,311.025,166.4,306.826z
			 M345.6,306.826c0,76.8-89.6,102.4-89.6,102.4s-25.455-7.39-49.229-25.822L345.6,304.061
			C345.6,304.992,345.6,305.896,345.6,306.826z M345.6,274.579l-158.123,90.359c-5.043-6.135-9.498-13.013-13.013-20.668
			l160.41-91.657l10.726,3.021C345.6,255.626,345.6,263.426,345.6,274.579z"/>
	</g>
</g>
<g>
	<g>
		<path d="M499.2,486.402h-38.4v-204.8h25.6c10.359,0,19.686-6.238,23.654-15.804c3.959-9.566,1.775-20.574-5.547-27.904
			l-230.4-230.4C269.107,2.502,262.554,0.002,256,0.002s-13.107,2.5-18.099,7.501L166.4,78.995V51.202c0-14.14-11.46-25.6-25.6-25.6
			h-25.6c-14.14,0-25.6,11.46-25.6,25.6v104.593L7.501,237.894c-7.322,7.322-9.515,18.33-5.547,27.904
			c3.959,9.566,13.295,15.804,23.646,15.804h25.6v204.8H12.8c-7.074,0-12.8,5.726-12.8,12.8c0,7.074,5.726,12.8,12.8,12.8h486.4
			c7.074,0,12.8-5.726,12.8-12.8C512,492.128,506.274,486.402,499.2,486.402z M115.2,51.202h25.6v53.393l-25.6,25.6V51.202z
			 M435.2,486.402H76.8v-230.4H25.6L256,25.602l230.4,230.4h-51.2V486.402z"/>
	</g>
</g>
<g>
</g>
<g>
</g>
<g>
</g>
<g>
</g>
<g>
</g>
<g>
</g>
<g>
</g>
<g>
</g>
<g>
</g>
<g>
</g>
<g>
</g>
<g>
</g>
<g>
</g>
<g>
</g>
<g>
</g>
</svg>
