<?xml version="1.0" encoding="iso-8859-1"?>
<!-- Generator: Adobe Illustrator 19.0.0, SVG Export Plug-In . SVG Version: 6.00 Build 0)  -->
<svg version="1.1" id="Layer_1" xmlns="http://www.w3.org/2000/svg" xmlns:xlink="http://www.w3.org/1999/xlink" x="0px" y="0px"
	 viewBox="0 0 512 512" style="enable-background:new 0 0 512 512;" xml:space="preserve">
<g>
	<g>
		<path d="M475.681,132.77l-179.2-128C292.026,1.587,286.813,0,281.599,0s-10.428,1.587-14.882,4.77l-179.2,128
			c-9.054,6.468-12.894,18.048-9.498,28.646c3.396,10.598,13.252,17.783,24.38,17.783h25.6v14.43
			c8.013-6.502,16.589-12.109,25.6-16.811V153.6h-51.2l179.2-128l179.2,128h-51.2V384h-48.828
			c-4.71,9.011-10.308,17.587-16.811,25.6h65.638c14.14,0,25.6-11.46,25.6-25.6V179.2h25.6c11.127,0,20.983-7.185,24.38-17.783
			C488.575,150.818,484.735,139.238,475.681,132.77z"/>
	</g>
</g>
<g>
	<g>
		<path d="M315.032,222.558c-24.175-24.175-56.32-37.487-90.513-37.487c-34.193,0-66.33,13.312-90.513,37.487
			c-46.805,46.805-49.135,120.832-8.132,171.059L25.599,493.901L43.698,512l100.25-100.25
			c22.784,18.654,50.731,29.321,80.572,29.321c34.193,0,66.338-13.312,90.513-37.495c24.175-24.175,37.487-56.32,37.487-90.505
			C352.519,278.878,339.207,246.733,315.032,222.558z M296.933,385.476c-19.994,19.994-46.199,29.995-72.405,29.995
			c-26.189,0-52.378-9.984-72.363-29.961l-0.077-0.077c-39.953-39.996-39.945-104.798,0.034-144.768
			c19.994-19.994,46.199-29.995,72.405-29.995s52.412,10.001,72.405,29.995C336.92,280.653,336.92,345.489,296.933,385.476z"/>
	</g>
</g>
<g>
</g>
<g>
</g>
<g>
</g>
<g>
</g>
<g>
</g>
<g>
</g>
<g>
</g>
<g>
</g>
<g>
</g>
<g>
</g>
<g>
</g>
<g>
</g>
<g>
</g>
<g>
</g>
<g>
</g>
</svg>
