<?xml version="1.0" encoding="iso-8859-1"?>
<!-- Generator: Adobe Illustrator 19.0.0, SVG Export Plug-In . SVG Version: 6.00 Build 0)  -->
<svg version="1.1" id="Layer_1" xmlns="http://www.w3.org/2000/svg" xmlns:xlink="http://www.w3.org/1999/xlink" x="0px" y="0px"
	 viewBox="0 0 512 512" style="enable-background:new 0 0 512 512;" xml:space="preserve">
<g>
	<g>
		<path d="M499.2,392.431h-38.4v-128h25.6v-102.4H284.203L204.8,93.969l-79.403,68.062H51.2v63.607L17.271,254.72l16.648,19.422
			l17.28-14.805v133.094H12.8c-7.074,0-12.8,5.726-12.8,12.8c0,7.074,5.726,12.8,12.8,12.8h486.4c7.074,0,12.8-5.726,12.8-12.8
			C512,398.157,506.274,392.431,499.2,392.431z M460.8,187.631v51.2h-87.006l-59.725-51.2H460.8z M76.8,187.631h18.739L76.8,203.691
			V187.631z M281.6,392.431H256v-76.8h25.6V392.431z M332.8,392.431h-25.6v-102.4h-76.8v102.4H76.8V237.397l128-109.705l128,109.705
			V392.431z M435.2,392.431h-76.8v-128h76.8V392.431z"/>
	</g>
</g>
<g>
	<g>
		<path d="M102.4,290.031v76.8h102.4v-76.8H102.4z M179.2,341.231H128v-25.6h51.2V341.231z"/>
	</g>
</g>
<g>
	<g>
		<rect x="179.2" y="187.631" width="51.2" height="25.6"/>
	</g>
</g>
<g>
</g>
<g>
</g>
<g>
</g>
<g>
</g>
<g>
</g>
<g>
</g>
<g>
</g>
<g>
</g>
<g>
</g>
<g>
</g>
<g>
</g>
<g>
</g>
<g>
</g>
<g>
</g>
<g>
</g>
</svg>
