<?xml version="1.0" encoding="iso-8859-1"?>
<!-- Generator: Adobe Illustrator 19.0.0, SVG Export Plug-In . SVG Version: 6.00 Build 0)  -->
<svg version="1.1" id="Layer_1" xmlns="http://www.w3.org/2000/svg" xmlns:xlink="http://www.w3.org/1999/xlink" x="0px" y="0px"
	 viewBox="0 0 512 512" style="enable-background:new 0 0 512 512;" xml:space="preserve">
<g>
	<g>
		<path d="M115.2,345.6c-28.228,0-51.2,22.972-51.2,51.2c0,28.228,22.972,51.2,51.2,51.2s51.2-22.972,51.2-51.2
			C166.4,368.572,143.428,345.6,115.2,345.6z M115.2,422.4c-14.14,0-25.6-11.46-25.6-25.6c0-14.14,11.46-25.6,25.6-25.6
			s25.6,11.46,25.6,25.6C140.8,410.94,129.34,422.4,115.2,422.4z"/>
	</g>
</g>
<g>
	<g>
		<path d="M486.4,0h-51.2c-6.793,0-13.303,2.697-18.099,7.501L209.22,215.381c-17.271-6.741-35.994-10.581-55.62-10.581
			C68.907,204.8,0,273.707,0,358.4S68.907,512,153.6,512s153.6-68.907,153.6-153.6c0-19.627-3.84-38.349-10.581-55.62l40.414-40.414
			c5.325-5.325,8.038-12.723,7.407-20.224l-2.236-26.888l5.325-5.547l13.585,5.82c3.251,1.391,6.682,2.074,10.078,2.074
			c6.656,0,13.21-2.594,18.108-7.501l15.471-15.471c4.898-4.898,7.603-11.571,7.492-18.5l-0.128-8.132h8.661
			c6.844,0,13.397-2.739,18.202-7.603c4.813-4.864,7.475-11.452,7.39-18.295l-0.239-20.506h21.035
			c6.793,0,13.303-2.697,18.099-7.501l19.2-19.2C509.303,90.103,512,83.593,512,76.8V25.6C512,11.46,500.54,0,486.4,0z M153.6,486.4
			c-70.69,0-128-57.31-128-128s57.31-128,128-128s128,57.31,128,128S224.29,486.4,153.6,486.4z M486.4,76.8L467.2,96h-46.933
			l0.529,46.404h-34.662l0.538,34.133L371.2,192l-29.867-12.8l-25.6,26.667l3.2,38.4l-34.338,34.338
			c-12.766-20.873-30.328-38.434-51.2-51.2L435.2,25.6h51.2V76.8z"/>
	</g>
</g>
<g>
</g>
<g>
</g>
<g>
</g>
<g>
</g>
<g>
</g>
<g>
</g>
<g>
</g>
<g>
</g>
<g>
</g>
<g>
</g>
<g>
</g>
<g>
</g>
<g>
</g>
<g>
</g>
<g>
</g>
</svg>
