<?xml version="1.0" encoding="iso-8859-1"?>
<!-- Generator: Adobe Illustrator 19.0.0, SVG Export Plug-In . SVG Version: 6.00 Build 0)  -->
<svg version="1.1" id="Layer_1" xmlns="http://www.w3.org/2000/svg" xmlns:xlink="http://www.w3.org/1999/xlink" x="0px" y="0px"
	 viewBox="0 0 512.003 512.003" style="enable-background:new 0 0 512.003 512.003;" xml:space="preserve">
<g>
	<g>
		<path d="M499.2,486.402h-38.4v-204.8h25.6c10.351,0,19.686-6.238,23.654-15.804c3.959-9.566,1.775-20.574-5.547-27.904
			l-230.4-230.4C269.107,2.502,262.554,0.002,256,0.002s-13.107,2.5-18.099,7.501L166.4,78.995V51.202c0-14.14-11.46-25.6-25.6-25.6
			h-25.6c-14.14,0-25.6,11.46-25.6,25.6v104.593L7.501,237.894c-7.322,7.322-9.515,18.33-5.547,27.904
			c3.959,9.566,13.295,15.804,23.646,15.804h25.6v204.8H12.8c-7.074,0-12.8,5.726-12.8,12.8c0,7.074,5.726,12.8,12.8,12.8h486.4
			c7.074,0,12.8-5.726,12.8-12.8C512,492.128,506.274,486.402,499.2,486.402z M115.2,51.202h25.6v53.393l-25.6,25.6V51.202z
			 M435.2,486.402H76.8v-230.4H25.6L256,25.602l230.4,230.4h-51.2V486.402z"/>
	</g>
</g>
<g>
	<g>
		
			<rect x="111.189" y="319.998" transform="matrix(0.7071 -0.7071 0.7071 0.7071 -160.3423 278.4951)" width="289.627" height="25.6"/>
	</g>
</g>
<g>
	<g>
		<path d="M192,217.602c-28.228,0-51.2,22.963-51.2,51.2c0,28.237,22.98,51.2,51.2,51.2c28.228,0,51.2-22.963,51.2-51.2
			C243.2,240.565,220.228,217.602,192,217.602z M192,294.402c-14.123,0-25.6-11.486-25.6-25.6c0-14.114,11.477-25.6,25.6-25.6
			s25.6,11.486,25.6,25.6C217.6,282.916,206.123,294.402,192,294.402z"/>
	</g>
</g>
<g>
	<g>
		<path d="M320,345.602c-28.228,0-51.2,22.963-51.2,51.2c0,28.237,22.972,51.2,51.2,51.2c28.228,0,51.2-22.963,51.2-51.2
			C371.2,368.565,348.228,345.602,320,345.602z M320,422.402c-14.123,0-25.6-11.486-25.6-25.6c0-14.114,11.477-25.6,25.6-25.6
			c14.123,0,25.6,11.486,25.6,25.6C345.6,410.916,334.123,422.402,320,422.402z"/>
	</g>
</g>
<g>
</g>
<g>
</g>
<g>
</g>
<g>
</g>
<g>
</g>
<g>
</g>
<g>
</g>
<g>
</g>
<g>
</g>
<g>
</g>
<g>
</g>
<g>
</g>
<g>
</g>
<g>
</g>
<g>
</g>
</svg>
