<?xml version="1.0" encoding="iso-8859-1"?>
<!-- Generator: Adobe Illustrator 19.0.0, SVG Export Plug-In . SVG Version: 6.00 Build 0)  -->
<svg version="1.1" id="Layer_1" xmlns="http://www.w3.org/2000/svg" xmlns:xlink="http://www.w3.org/1999/xlink" x="0px" y="0px"
	 viewBox="0 0 512.009 512.009" style="enable-background:new 0 0 512.009 512.009;" xml:space="preserve">
<g>
	<g>
		<path d="M476.518,343.224l27.989-27.989c10.001-10.001,10.001-26.206,0-36.207L232.977,7.497c-5-4.992-11.554-7.492-18.108-7.492
			c-6.554,0-13.107,2.5-18.099,7.501L124.365,79.91c-10.001,10.001-10.001,26.206,0,36.207l271.531,271.531
			c5,5.001,11.554,7.501,18.099,7.501s13.107-2.5,18.099-7.501l26.325-26.325l22.682,22.682L390.4,474.705L213.854,298.159
			c-5.001-5-13.099-5-18.099,0l-52.489,52.489l-9.054-9.054c-5.001-5.001-11.554-7.501-18.099-7.501
			c-6.545,0-13.107,2.5-18.099,7.501L7.501,432.098c-10.001,10.001-10.001,26.206,0,36.207l36.207,36.207
			c4.992,4.992,11.546,7.492,18.099,7.492s13.107-2.5,18.099-7.501l90.513-90.513c10.001-10.001,10.001-26.206,0-36.207
			l-9.054-9.054l43.435-43.435l176.546,176.546c2.5,2.5,5.777,3.746,9.054,3.746c3.277,0,6.554-1.246,9.054-3.746l108.8-108.8
			c5-5.001,5-13.099,0-18.099L476.518,343.224z M413.995,369.54L142.464,98.01l72.405-72.405L486.4,297.135L413.995,369.54z
			 M61.807,486.404L25.6,450.197l90.513-90.513l36.207,36.207L61.807,486.404z"/>
	</g>
</g>
<g>
</g>
<g>
</g>
<g>
</g>
<g>
</g>
<g>
</g>
<g>
</g>
<g>
</g>
<g>
</g>
<g>
</g>
<g>
</g>
<g>
</g>
<g>
</g>
<g>
</g>
<g>
</g>
<g>
</g>
</svg>
