<?xml version="1.0" encoding="iso-8859-1"?>
<!-- Generator: Adobe Illustrator 19.0.0, SVG Export Plug-In . SVG Version: 6.00 Build 0)  -->
<svg version="1.1" id="Layer_1" xmlns="http://www.w3.org/2000/svg" xmlns:xlink="http://www.w3.org/1999/xlink" x="0px" y="0px"
	 viewBox="0 0 512 512" style="enable-background:new 0 0 512 512;" xml:space="preserve">
<g>
	<g>
		<path d="M221.867,237.158c-1.954-3.362-4.471-6.374-7.552-9.003c-2.876-2.423-5.999-4.514-9.327-6.221l-8.474-4.275
			c-2.526-1.263-4.676-2.398-6.451-3.388c-1.297-0.725-2.321-1.451-3.021-2.133c-0.478-0.461-0.802-0.939-0.922-1.271
			c-0.154-0.384-0.324-1.101-0.324-2.261c0-2.313,0-5.188,8.499-5.188c2.927,0,5.726,0.375,8.576,1.152
			c2.901,0.759,5.453,1.749,7.646,2.91l7.347,3.908l5.103-21.922l-4.378-2.304c-3.226-1.698-6.997-3.089-11.273-4.139
			c-8.448-2.022-17.826-2.048-25.378,0.077c-4.002,1.135-7.501,2.876-10.453,5.188c-3.072,2.415-5.504,5.478-7.177,9.071
			c-1.698,3.575-2.551,7.637-2.551,12.1c0,4.139,0.853,7.876,2.475,11.051c1.476,2.953,3.499,5.666,6.076,8.098
			c2.347,2.202,5.077,4.173,8.098,5.837c2.697,1.51,5.547,2.953,8.951,4.565l6.4,3.063c1.724,0.853,3.226,1.784,4.446,2.816
			c1.024,0.853,1.852,1.783,2.372,2.697c0.401,0.734,0.597,1.766,0.597,3.021c0,2.534-0.853,3.635-2.176,4.54
			c-3.857,2.68-11.682,2.833-18.756,1.067c-3.251-0.802-6.221-1.809-8.875-3.046l-7.049-3.251l-5.35,21.589l4.727,2.253
			c3.874,1.86,8.226,3.277,12.928,4.198c4.548,0.896,9.054,1.348,13.372,1.348c4.625,0,9.028-0.623,13.15-1.877
			c4.198-1.289,7.953-3.174,11.076-5.572c3.302-2.492,5.973-5.572,7.979-9.225c1.997-3.763,3.021-7.962,3.021-12.51
			C225.22,245.274,224.094,240.896,221.867,237.158z"/>
	</g>
</g>
<g>
	<g>
		<path d="M285.943,182.963h-19.797l-37.726,94.865h25.446l7.407-19.84h29.449l7.501,19.84h25.446L285.943,182.963z M269.44,236.083
			l6.605-17.877l6.596,17.877H269.44z"/>
	</g>
</g>
<g>
	<g>
		<polygon points="354.167,255.787 354.167,182.963 330.018,182.963 330.018,277.828 388.42,277.828 388.42,255.787 		"/>
	</g>
</g>
<g>
	<g>
		<polygon points="420.685,255.787 420.685,240.486 453.589,240.486 453.589,218.453 420.685,218.453 420.685,205.005 
			455.066,205.005 455.066,182.963 396.536,182.963 396.536,277.828 455.441,277.828 455.441,255.787 		"/>
	</g>
</g>
<g>
	<g>
		<path d="M512,64V38.4H64V0H38.4v38.4H0V64h38.4v422.4H12.8c-7.074,0-12.8,5.726-12.8,12.8c0,7.074,5.726,12.8,12.8,12.8h76.8
			c7.074,0,12.8-5.726,12.8-12.8c0-7.074-5.726-12.8-12.8-12.8H64V64h89.591v38.4H128c-14.14,0-25.6,11.46-25.6,25.6v204.8
			c0,14.14,11.46,25.6,25.6,25.6h358.4c14.14,0,25.6-11.46,25.6-25.6V128c0-14.14-11.46-25.6-25.6-25.6h-25.6V64H512z M179.191,64
			H435.2v38.4H179.191V64z M486.4,128v204.8H128V128H486.4z"/>
	</g>
</g>
<g>
</g>
<g>
</g>
<g>
</g>
<g>
</g>
<g>
</g>
<g>
</g>
<g>
</g>
<g>
</g>
<g>
</g>
<g>
</g>
<g>
</g>
<g>
</g>
<g>
</g>
<g>
</g>
<g>
</g>
</svg>
