<?xml version="1.0" encoding="iso-8859-1"?>
<!-- Generator: Adobe Illustrator 19.0.0, SVG Export Plug-In . SVG Version: 6.00 Build 0)  -->
<svg version="1.1" id="Layer_1" xmlns="http://www.w3.org/2000/svg" xmlns:xlink="http://www.w3.org/1999/xlink" x="0px" y="0px"
	 viewBox="0 0 512 512" style="enable-background:new 0 0 512 512;" xml:space="preserve">
<g>
	<g>
		<path d="M501.28,209.57l-179.2-128c-4.454-3.183-9.668-4.77-14.882-4.77s-10.428,1.587-14.882,4.77l-111.761,79.829
			c7.398,4.599,13.534,11.017,17.801,18.748L307.198,102.4l179.2,128h-51.2v230.4H181.4l-2.031,25.6h255.829
			c14.14,0,25.6-11.46,25.6-25.6V256h25.6c11.128,0,20.983-7.185,24.371-17.783C514.174,227.618,510.334,216.038,501.28,209.57z"/>
	</g>
</g>
<g>
	<g>
		<path d="M204.38,341.018l-25.6-140.8c-2.21-12.169-12.809-21.018-25.182-21.018h-102.4c-12.373,0-22.972,8.849-25.182,21.026
			l-25.6,140.8c-1.357,7.467,0.666,15.155,5.53,20.983c4.864,5.828,12.066,9.19,19.652,9.19h16.358l9.327,117.231
			C52.341,501.734,63.443,512,76.798,512h51.2c13.355,0,24.465-10.266,25.523-23.569L162.84,371.2h16.358
			c7.595,0,14.788-3.371,19.652-9.199C203.714,356.173,205.737,348.493,204.38,341.018z M139.194,345.6l-11.196,140.8h-51.2
			L65.602,345.6H25.598l25.6-140.8h38.4v77.875c0,7.074,5.726,12.8,12.8,12.8c7.074,0,12.8-5.726,12.8-12.8V204.8h38.4l25.6,140.8
			H139.194z"/>
	</g>
</g>
<g>
	<g>
		<path d="M102.398,0c-42.342,0-76.8,34.458-76.8,76.8s34.458,76.8,76.8,76.8c42.351,0,76.8-34.449,76.8-76.8
			C179.198,34.449,144.749,0,102.398,0z M102.398,128c-28.279,0-51.2-22.921-51.2-51.2s22.921-51.2,51.2-51.2s51.2,22.921,51.2,51.2
			S130.677,128,102.398,128z"/>
	</g>
</g>
<g>
</g>
<g>
</g>
<g>
</g>
<g>
</g>
<g>
</g>
<g>
</g>
<g>
</g>
<g>
</g>
<g>
</g>
<g>
</g>
<g>
</g>
<g>
</g>
<g>
</g>
<g>
</g>
<g>
</g>
</svg>
