<?xml version="1.0" encoding="iso-8859-1"?>
<!-- Generator: Adobe Illustrator 19.0.0, SVG Export Plug-In . SVG Version: 6.00 Build 0)  -->
<svg version="1.1" id="Layer_1" xmlns="http://www.w3.org/2000/svg" xmlns:xlink="http://www.w3.org/1999/xlink" x="0px" y="0px"
	 viewBox="0 0 512 512" style="enable-background:new 0 0 512 512;" xml:space="preserve">
<g>
	<g>
		<path d="M213.931,239.454c-1.954-3.362-4.471-6.374-7.552-9.003c-2.876-2.423-5.999-4.514-9.327-6.221l-8.465-4.284
			c-2.526-1.263-4.676-2.398-6.451-3.388c-1.297-0.725-2.321-1.451-3.021-2.133c-0.478-0.461-0.802-0.939-0.922-1.271
			c-0.154-0.384-0.324-1.101-0.324-2.261c0-2.313,0-5.188,8.499-5.188c2.927,0,5.726,0.375,8.576,1.152
			c2.901,0.759,5.453,1.749,7.646,2.91l7.347,3.908l5.103-21.922l-4.378-2.304c-3.226-1.698-6.997-3.089-11.273-4.139
			c-8.448-2.022-17.826-2.048-25.378,0.077c-4.002,1.135-7.501,2.876-10.453,5.188c-3.072,2.415-5.504,5.478-7.177,9.071
			c-1.698,3.576-2.551,7.637-2.551,12.1c0,4.139,0.853,7.876,2.475,11.051c1.476,2.953,3.499,5.666,6.076,8.098
			c2.347,2.202,5.077,4.173,8.098,5.837c2.697,1.51,5.547,2.953,8.951,4.565l6.4,3.063c1.724,0.853,3.226,1.783,4.446,2.816
			c1.024,0.853,1.852,1.783,2.372,2.697c0.401,0.734,0.597,1.766,0.597,3.021c0,2.534-0.853,3.635-2.176,4.54
			c-3.84,2.662-11.716,2.833-18.765,1.075c-3.251-0.802-6.221-1.809-8.875-3.046l-7.049-3.251l-5.35,21.589l4.727,2.253
			c3.874,1.86,8.226,3.277,12.928,4.198c4.548,0.896,9.045,1.348,13.372,1.348c4.625,0,9.028-0.623,13.15-1.877
			c4.198-1.289,7.953-3.174,11.076-5.572c3.302-2.492,5.973-5.572,7.979-9.224c1.997-3.763,3.021-7.962,3.021-12.51
			C217.284,247.569,216.158,243.191,213.931,239.454z"/>
	</g>
</g>
<g>
	<g>
		<path d="M309.632,214.383c-2.022-5.922-5.026-11.213-8.951-15.684c-3.9-4.523-8.849-8.175-14.703-10.871
			c-11.725-5.35-27.972-5.299-39.603,0c-5.854,2.688-10.803,6.34-14.729,10.846c-3.925,4.497-6.929,9.788-8.926,15.684
			c-1.997,5.803-3.004,11.964-3.004,18.338s0.998,12.553,2.978,18.321c2.039,5.922,5.035,11.204,8.96,15.684
			c3.925,4.54,8.875,8.183,14.729,10.863c5.828,2.671,12.476,4.036,19.797,4.036c7.279,0,13.952-1.348,19.797-4.036
			s10.803-6.34,14.703-10.837c3.925-4.497,6.929-9.788,8.926-15.684c1.997-5.803,3.004-11.972,3.004-18.347
			S311.612,220.16,309.632,214.383z M286.916,243.84c-0.973,3.251-2.449,6.127-4.352,8.559c-1.775,2.261-3.977,4.002-6.724,5.316
			c-5.427,2.611-13.901,2.603-19.354,0c-2.722-1.314-4.924-3.046-6.699-5.316c-1.903-2.44-3.379-5.316-4.352-8.576
			c-1.05-3.473-1.579-7.228-1.579-11.153c0-3.925,0.529-7.654,1.579-11.136c0.973-3.226,2.423-6.076,4.326-8.465
			c1.775-2.261,4.002-4.028,6.801-5.376c2.697-1.323,5.948-1.997,9.626-1.997c3.678,0,6.903,0.674,9.626,1.997
			c2.773,1.348,5.001,3.115,6.775,5.376c1.903,2.389,3.354,5.24,4.326,8.474c1.05,3.465,1.579,7.211,1.579,11.136
			S287.966,240.35,286.916,243.84z"/>
	</g>
</g>
<g>
	<g>
		<polygon points="342.409,258.091 342.409,185.259 318.259,185.259 318.259,280.124 376.661,280.124 376.661,258.091 		"/>
	</g>
</g>
<g>
	<g>
		<path d="M460.664,213.7c-2.603-5.854-6.349-10.965-11.102-15.172c-4.676-4.173-10.351-7.475-16.879-9.813
			c-6.426-2.287-13.602-3.447-21.376-3.447h-29.201v94.865h29.201c7.774-0.009,14.95-1.169,21.376-3.456
			c6.528-2.338,12.203-5.649,16.879-9.813c4.753-4.216,8.499-9.31,11.102-15.172c2.577-5.803,3.874-12.186,3.874-19.004
			C464.538,225.886,463.241,219.503,460.664,213.7z M438.229,243.516c-1.451,3.123-3.396,5.692-5.897,7.799
			c-2.628,2.21-5.623,3.874-9.173,5.052c-3.652,1.229-7.646,1.835-11.853,1.835h-5.052v-51.029h5.052
			c4.198,0,8.201,0.614,11.853,1.835c3.55,1.178,6.554,2.842,9.148,5.035c2.526,2.125,4.446,4.685,5.922,7.834
			c1.451,3.123,2.176,6.75,2.176,10.803C440.405,236.8,439.68,240.452,438.229,243.516z"/>
	</g>
</g>
<g>
	<g>
		<path d="M512,64V38.4H64V0H38.4v38.4H0V64h38.4v422.4H12.8c-7.074,0-12.8,5.726-12.8,12.8c0,7.074,5.726,12.8,12.8,12.8h76.8
			c7.074,0,12.8-5.726,12.8-12.8c0-7.074-5.726-12.8-12.8-12.8H64V64h89.591v38.4H128c-14.14,0-25.6,11.46-25.6,25.6v204.8
			c0,14.14,11.46,25.6,25.6,25.6h358.4c14.14,0,25.6-11.46,25.6-25.6V128c0-14.14-11.46-25.6-25.6-25.6h-25.6V64H512z M179.191,64
			H435.2v38.4H179.191V64z M486.4,128v204.8H128V128H486.4z"/>
	</g>
</g>
<g>
</g>
<g>
</g>
<g>
</g>
<g>
</g>
<g>
</g>
<g>
</g>
<g>
</g>
<g>
</g>
<g>
</g>
<g>
</g>
<g>
</g>
<g>
</g>
<g>
</g>
<g>
</g>
<g>
</g>
</svg>
