<?xml version="1.0" encoding="iso-8859-1"?>
<!-- Generator: Adobe Illustrator 19.0.0, SVG Export Plug-In . SVG Version: 6.00 Build 0)  -->
<svg version="1.1" id="Layer_1" xmlns="http://www.w3.org/2000/svg" xmlns:xlink="http://www.w3.org/1999/xlink" x="0px" y="0px"
	 viewBox="0 0 512 512" style="enable-background:new 0 0 512 512;" xml:space="preserve">
<g>
	<g>
		<path d="M221.464,364.561l-89.6-76.8c-4.796-4.105-10.735-6.161-16.666-6.161s-11.87,2.057-16.657,6.161l-89.6,76.8
			c-8.132,6.972-11.068,18.27-7.347,28.322C5.306,402.927,14.889,409.6,25.599,409.6v76.8c0,14.14,11.46,25.6,25.6,25.6h128
			c14.14,0,25.6-11.46,25.6-25.6v-76.8c10.709,0,20.292-6.673,24.013-16.717C232.523,382.839,229.597,371.533,221.464,364.561z
			 M179.199,384v102.4h-128V384h-25.6l89.6-76.8l89.6,76.8H179.199z"/>
	</g>
</g>
<g>
	<g>
		<path d="M140.799,384h-51.2c-7.074,0-12.8,5.726-12.8,12.8V448c0,7.074,5.726,12.8,12.8,12.8h51.2c7.074,0,12.8-5.726,12.8-12.8
			v-51.2C153.599,389.726,147.873,384,140.799,384z M127.999,435.2h-25.6v-25.6h25.6V435.2z"/>
	</g>
</g>
<g>
	<g>
		<path d="M486.399,0h-76.8c-14.14,0-25.6,11.46-25.6,25.6v76.8h-76.8c-14.14,0-25.6,11.46-25.6,25.6v76.8h-76.8
			c-14.14,0-25.6,11.46-25.6,25.6v64.213l25.6,21.948V230.4h76.8v256h-51.2c0,9.37-2.714,18.039-7.125,25.6h263.125
			c14.14,0,25.6-11.46,25.6-25.6V25.6C511.999,11.46,500.539,0,486.399,0z M383.999,486.4h-76.8V128h76.8V486.4z M486.399,486.4
			h-76.8V25.6h76.8V486.4z"/>
	</g>
</g>
<g>
</g>
<g>
</g>
<g>
</g>
<g>
</g>
<g>
</g>
<g>
</g>
<g>
</g>
<g>
</g>
<g>
</g>
<g>
</g>
<g>
</g>
<g>
</g>
<g>
</g>
<g>
</g>
<g>
</g>
</svg>
