<?xml version="1.0" encoding="iso-8859-1"?>
<!-- Generator: Adobe Illustrator 19.0.0, SVG Export Plug-In . SVG Version: 6.00 Build 0)  -->
<svg version="1.1" id="Layer_1" xmlns="http://www.w3.org/2000/svg" xmlns:xlink="http://www.w3.org/1999/xlink" x="0px" y="0px"
	 viewBox="0 0 512 512" style="enable-background:new 0 0 512 512;" xml:space="preserve">
<g>
	<g>
		<polygon points="232.422,194.449 179.2,216.653 186.598,236.86 223.3,221.773 223.3,384 249.199,384 249.199,194.449 		"/>
	</g>
</g>
<g>
	<g>
		<path d="M300.885,202.411c1.348-1.314,2.799-2.79,4.378-4.437c2.876-2.987,5.521-5.871,7.902-8.687
			c2.577-3.012,4.727-6.05,6.477-9.088c1.903-3.174,3.354-6.562,4.326-9.984c1.05-3.499,1.579-7.347,1.579-11.435
			c0-4.446-0.751-8.61-2.227-12.416c-1.553-3.849-3.772-7.185-6.647-9.941c-2.85-2.748-6.298-4.873-10.223-6.315
			c-7.1-2.637-16.102-2.688-24.098-0.785c-3.9,0.947-7.475,2.44-10.675,4.437l-4.173,2.586l6.281,20.762l6.929-3.823
			c1.903-1.05,3.9-1.877,5.999-2.44c1.997-0.563,4.002-0.828,6.05-0.828c3.9,0,5.598,1.271,6.528,2.21
			c1.527,1.536,2.253,3.84,2.253,7.04c0,3.866-0.947,7.364-2.901,10.701c-2.227,3.814-5.35,7.936-9.225,12.211
			c-3.422,3.763-7.023,7.603-10.778,11.563c-3.746,3.951-7.953,8.235-12.578,12.877l-2.423,2.423l3.046,15.275h60.075v-21.905
			H300.885z"/>
	</g>
</g>
<g>
	<g>
		<path d="M486.4,0H281.6c-6.784,0-13.295,2.697-18.099,7.501l-256,256c-10.001,10.001-10.001,26.197,0,36.198l204.8,204.8
			c10.001,10.001,26.197,10.001,36.198,0l256-256c4.796-4.796,7.501-11.315,7.501-18.099V25.6C512,11.46,500.548,0,486.4,0z
			 M486.4,230.4l-256,256L25.6,281.6l256-256h204.8V230.4z"/>
	</g>
</g>
<g>
	<g>
		<path d="M409.6,51.2c-28.279,0-51.2,22.929-51.2,51.2s22.921,51.2,51.2,51.2c28.271,0,51.2-22.929,51.2-51.2
			S437.871,51.2,409.6,51.2z M409.6,128c-14.148,0-25.6-11.46-25.6-25.6c0-14.14,11.452-25.6,25.6-25.6
			c14.14,0,25.6,11.46,25.6,25.6C435.2,116.54,423.74,128,409.6,128z"/>
	</g>
</g>
<g>
</g>
<g>
</g>
<g>
</g>
<g>
</g>
<g>
</g>
<g>
</g>
<g>
</g>
<g>
</g>
<g>
</g>
<g>
</g>
<g>
</g>
<g>
</g>
<g>
</g>
<g>
</g>
<g>
</g>
</svg>
