<?xml version="1.0" encoding="iso-8859-1"?>
<!-- Generator: Adobe Illustrator 19.0.0, SVG Export Plug-In . SVG Version: 6.00 Build 0)  -->
<svg version="1.1" id="Layer_1" xmlns="http://www.w3.org/2000/svg" xmlns:xlink="http://www.w3.org/1999/xlink" x="0px" y="0px"
	 viewBox="0 0 512 512" style="enable-background:new 0 0 512 512;" xml:space="preserve">
<g>
	<g>
		<path d="M446.575,214.272c0-22.298-12.023-42.027-30.652-52.429c4.574-9.523,6.946-19.849,6.946-30.524
			c0-40.747-34.253-73.873-75.076-72.004C337.152,24.747,304.751,0,267.853,0c-37.521,0-69.453,24.303-80,59.324
			c-0.973-0.051-1.971-0.077-2.978-0.077c-52.804,0-95.753,42.974-95.753,95.778c0,12.271,2.423,24.277,7.228,35.772
			c-19.123,13.346-30.925,35.328-30.925,59.025c0,39.748,32.324,72.073,72.047,72.073c0.401,0,0.802,0,1.203-0.026
			c15.488,14.985,36.343,22.519,57.207,22.767l45.892,68.83V486.4h-51.2c-7.074,0-12.8,5.726-12.8,12.8
			c0,7.074,5.726,12.8,12.8,12.8h128c7.074,0,12.8-5.726,12.8-12.8c0-7.074-5.726-12.8-12.8-12.8h-51.2v-72.525l52.975-70.63
			c10.223-2.577,19.866-7.236,28.228-14.217c6.895,2.5,13.995,3.772,21.197,3.772c35.302,0,64-28.698,64-64
			c0-5.154-0.649-10.3-1.929-15.351C441.276,242.551,446.575,228.676,446.575,214.272z M241.775,367.326l-17.997-26.991
			c6.323-2.048,12.339-4.864,17.997-8.397V367.326z M267.375,371.191v-35.644c6.391,3.746,13.235,6.647,20.54,8.26L267.375,371.191z
			 M408.875,240.273c-4.096,3.576-5.504,9.353-3.499,14.404c1.852,4.676,2.799,9.421,2.799,14.123
			c0,27.179-29.952,47.701-56.201,33.775c-5.103-2.697-11.349-1.647-15.3,2.551c-20.727,21.999-57.421,17.323-72.678-7.296
			c-2.202-3.576-6.05-5.828-10.249-6.025c-0.222-0.026-0.427-0.026-0.623-0.026c-3.977,0-7.748,1.852-10.172,5.052
			c-21.504,28.126-66.321,29.85-89.779,3.2c-2.722-3.123-6.852-4.651-11.025-4.275c-0.102,0.026-4.548,0.529-4.676,0.546
			c-25.626,0-46.447-20.847-46.447-46.472c0-18.099,10.752-34.697,27.401-42.249c3.277-1.476,5.777-4.275,6.878-7.723
			c1.126-3.422,0.725-7.151-1.075-10.274c-6.298-11.025-9.498-22.647-9.498-34.551c0-38.699,31.471-70.178,70.153-70.178
			c3.746,0,7.398,0.597,10.974,1.152c3.354,0.478,6.776-0.324,9.549-2.347c2.722-1.997,4.548-5.052,5.052-8.397
			c4.318-28.791,28.442-49.664,57.395-49.664c29.022,0,53.171,20.949,57.404,49.826c0.529,3.499,2.5,6.647,5.427,8.678
			c2.927,1.997,6.596,2.697,10.027,1.954c3.627-0.802,6.929-1.203,10.129-1.203c25.626,0,46.447,20.847,46.447,46.473
			c0,10.377-3.575,20.352-10.377,28.826c-2.748,3.447-3.55,8.047-2.074,12.228c1.451,4.147,4.924,7.279,9.225,8.252
			c15.846,3.601,26.923,17.451,26.923,33.647C420.975,224.273,416.674,233.523,408.875,240.273z"/>
	</g>
</g>
<g>
</g>
<g>
</g>
<g>
</g>
<g>
</g>
<g>
</g>
<g>
</g>
<g>
</g>
<g>
</g>
<g>
</g>
<g>
</g>
<g>
</g>
<g>
</g>
<g>
</g>
<g>
</g>
<g>
</g>
</svg>
