<?xml version="1.0" encoding="iso-8859-1"?>
<!-- Generator: Adobe Illustrator 19.0.0, SVG Export Plug-In . SVG Version: 6.00 Build 0)  -->
<svg version="1.1" id="Layer_1" xmlns="http://www.w3.org/2000/svg" xmlns:xlink="http://www.w3.org/1999/xlink" x="0px" y="0px"
	 viewBox="0 0 512 512" style="enable-background:new 0 0 512 512;" xml:space="preserve">
<g>
	<g>
		<path d="M448,204.8C448,91.691,362.035,0,256,0S64,91.691,64,204.8c0,22.827,7.953,40.508,20.437,54.357
			c-1.519,11.486-2.517,23.211-2.517,35.243C81.92,414.575,159.863,512,256,512c96.145,0,174.08-97.425,174.08-217.6
			c0-12.023-1.05-23.697-2.577-35.174C440.021,245.367,448,227.669,448,204.8z M256,486.4c-81.869,0-148.48-86.135-148.48-192
			c0-5.385,0.597-10.556,0.981-15.804c43.588,25.847,107.281,28.877,134.451,28.877c8.175,0,13.047-0.273,13.047-0.273
			s4.864,0.273,13.047,0.273c27.145,0,90.752-3.021,134.332-28.8c0.375,5.239,1.101,10.359,1.101,15.727
			C404.48,400.265,337.869,486.4,256,486.4z M269.056,281.865c-7.014,0-11.298-0.213-11.648-0.23l-1.425-0.077l-1.374,0.077
			c-0.341,0.017-4.634,0.23-11.648,0.23c-29.5,0.009-113.587-3.797-142.976-44.535h312.038
			C382.626,278.067,298.539,281.865,269.056,281.865z M421.675,211.729H90.325c-0.265-2.295-0.725-4.48-0.725-6.929
			c0-63.275,30.686-118.861,76.792-150.758V128c0,7.074,5.726,12.8,12.8,12.8c7.074,0,12.8-5.726,12.8-12.8V39.424
			c15.957-7.185,33.195-11.639,51.2-13.124v127.3c0,7.074,5.726,12.8,12.8,12.8c7.074,0,12.8-5.726,12.8-12.8V26.3
			c18.005,1.485,35.243,5.939,51.2,13.124V128c0,7.074,5.726,12.8,12.8,12.8c7.074,0,12.8-5.726,12.8-12.8V54.033
			C391.706,85.931,422.4,141.525,422.4,204.8C422.4,207.249,421.939,209.434,421.675,211.729z"/>
	</g>
</g>
<g>
</g>
<g>
</g>
<g>
</g>
<g>
</g>
<g>
</g>
<g>
</g>
<g>
</g>
<g>
</g>
<g>
</g>
<g>
</g>
<g>
</g>
<g>
</g>
<g>
</g>
<g>
</g>
<g>
</g>
</svg>
